# xmcd
#
# Track frame offsets:
#	150
#	16425
#	39600
#	50812
#	64350
#	78075
#	92400
#	110925
#	125625
#	139312
#	163100
#	177800
#	199800
#	225337
#	237225
#	257075
#	275400
#	290865
#	298507
#
# Disc length: 4150 seconds
#
# Revision: 3
# Processed by: cddbd v1.4PL0 Copyright (c) Steve Scherf et al.
# Submitted via: MusicWizard 6.0.0
#
DISCID=22103413
DTITLE=Various Artist - We The People -Folk Era Productions
DYEAR=1987
DGENRE=Country
TTITLE0=Johnny Cash And Friends - Power And The Glory
TTITLE1=Johnny Cash And Friends - We The People
TTITLE2=Johnny Cash And Friends - Aye, New Hampshire
TTITLE3=Johnny Cash And Friends - Battle Of New Orleans
TTITLE4=Johnny Cash And Friends - Pat Works On The Railway
TTITLE5=Johnny Cash And Friends - Remember The Alamo
TTITLE6=Johnny Cash And Friends - Roll Alabama Roll
TTITLE7=Johnny Cash And Friends - Two Brothers
TTITLE8=Johnny Cash And Friends - Rally Round The Flag
TTITLE9=Johnny Cash And Friends - The Immigrant
TTITLE10=Johnny Cash And Friends - The Reuben James
TTITLE11=Johnny Cash And Friends - The Ballad Of Ira Hayes
TTITLE12=Johnny Cash And Friends - Bobby/Battle Hymn Of The Republic
TTITLE13=Johnny Cash And Friends - The Last Frontier
TTITLE14=Johnny Cash And Friends - Day The Tall Ships Came
TTITLE15=Johnny Cash And Friends - Lady Of The Harbor
TTITLE16=Johnny Cash And Friends - Ragged Old Flag
TTITLE17=Johnny Cash And Friends - America
TTITLE18=Johnny Cash And Friends - This Land Is Your Land
EXTD=(c)1987 Folk Era Productions
EXTT0=
EXTT1=
EXTT2=
EXTT3=
EXTT4=
EXTT5=
EXTT6=
EXTT7=
EXTT8=
EXTT9=
EXTT10=
EXTT11=
EXTT12=
EXTT13=
EXTT14=
EXTT15=
EXTT16=
EXTT17=
EXTT18=
PLAYORDER=
